<svg width="23" height="23" viewBox="0 0 23 23" fill="none" xmlns="http://www.w3.org/2000/svg">
<path d="M20.0059 2.19088C19.442 1.67686 17.1594 0.0378295 12.0704 0.0159165C12.0704 0.0159165 6.07108 -0.339975 3.14911 2.314C1.5238 3.92211 0.950974 6.28173 0.888788 9.2037C0.826601 12.1258 0.751117 17.6006 6.08438 19.0858H6.08878L6.08438 21.3531C6.08438 21.3531 6.04889 22.2714 6.66166 22.456C7.39885 22.6845 7.83401 21.9859 8.54006 21.2344C8.92642 20.8214 9.45926 20.2151 9.86338 19.7536C13.5136 20.0569 16.3158 19.3626 16.6354 19.2616C17.3726 19.0243 21.5424 18.497 22.2173 13.0221C22.9189 7.37141 21.8799 3.8035 20.0059 2.19088ZM20.6232 12.6091C20.0503 17.1787 16.6709 17.4687 16.0493 17.6665C15.7828 17.7499 13.3182 18.3564 10.2231 18.1586C10.2231 18.1586 7.91394 20.9136 7.19454 21.6299C6.95919 21.8627 6.70165 21.8408 6.7061 21.3794C6.7061 21.0763 6.72384 17.6138 6.72384 17.6138C6.7194 17.6138 6.7194 17.6138 6.72384 17.6138C2.20321 16.3746 2.46965 11.7126 2.51849 9.27398C2.56733 6.83538 3.03363 4.8361 4.41024 3.49158C6.88371 1.27259 11.9772 1.60217 11.9772 1.60217C16.2802 1.61973 18.3407 2.90272 18.8203 3.33335C20.4055 4.67792 21.2138 7.89434 20.6232 12.6091ZM14.4506 9.05872C14.4683 9.43657 13.8955 9.46298 13.8778 9.08503C13.8289 8.11836 13.3715 7.64826 12.4301 7.59553C12.0482 7.57352 12.0837 7.00672 12.4611 7.02873C13.7002 7.09461 14.3885 7.79764 14.4506 9.05872ZM15.3521 9.55519C15.3964 7.69214 14.2197 6.23335 11.986 6.07082C11.6086 6.04445 11.6485 5.4776 12.0261 5.50396C14.6017 5.68856 15.9738 7.44175 15.9249 9.56839C15.9205 9.94625 15.3432 9.92873 15.3521 9.55519ZM17.4392 10.144C17.4436 10.5219 16.8663 10.5263 16.8663 10.1484C16.8397 6.56733 14.4285 4.61639 11.502 4.59442C11.1245 4.59002 11.1245 4.02762 11.502 4.02762C14.7748 4.04958 17.4081 6.28608 17.4392 10.144ZM16.9374 14.4545V14.4633C16.4578 15.2982 15.5608 16.221 14.6371 15.9265L14.6282 15.9133C13.6912 15.6541 11.4843 14.5293 10.0899 13.4307C9.37048 12.8683 8.71322 12.2048 8.20698 11.5677C7.74963 11.0008 7.28782 10.3285 6.83932 9.52007C5.89347 7.82836 5.68477 7.0726 5.68477 7.0726C5.38723 6.15866 6.31533 5.27104 7.16345 4.79653H7.1724C7.58091 4.58557 7.97168 4.65591 8.23367 4.96783C8.23367 4.96783 8.78435 5.61808 9.01966 5.93895C9.24171 6.23771 9.53924 6.71661 9.69466 6.98466C9.96555 7.46357 9.79674 7.95133 9.53035 8.15339L8.99746 8.57526C8.72662 8.79053 8.76211 9.19039 8.76211 9.19039C8.76211 9.19039 9.55254 12.1476 12.5056 12.8946C12.5056 12.8946 12.9098 12.9297 13.1273 12.6617L13.5536 12.1344C13.7578 11.8708 14.2508 11.7038 14.7348 11.9719C15.3876 12.3365 16.218 12.9034 16.7687 13.4175C17.0795 13.6679 17.1505 14.0503 16.9374 14.4545Z" fill="white"/>
<path d="M20.0059 2.19088C19.442 1.67686 17.1594 0.0378295 12.0704 0.0159165C12.0704 0.0159165 6.07108 -0.339975 3.14911 2.314C1.5238 3.92211 0.950974 6.28173 0.888788 9.2037C0.826601 12.1258 0.751117 17.6006 6.08438 19.0858H6.08878L6.08438 21.3531C6.08438 21.3531 6.04889 22.2714 6.66166 22.456C7.39885 22.6845 7.83401 21.9859 8.54006 21.2344C8.92642 20.8214 9.45926 20.2151 9.86338 19.7536C13.5136 20.0569 16.3158 19.3626 16.6354 19.2616C17.3726 19.0243 21.5424 18.497 22.2173 13.0221C22.9189 7.37141 21.8799 3.8035 20.0059 2.19088ZM20.6232 12.6091C20.0503 17.1787 16.6709 17.4687 16.0493 17.6665C15.7828 17.7499 13.3182 18.3564 10.2231 18.1586C10.2231 18.1586 7.91394 20.9136 7.19454 21.6299C6.95919 21.8627 6.70165 21.8408 6.7061 21.3794C6.7061 21.0763 6.72384 17.6138 6.72384 17.6138C6.7194 17.6138 6.7194 17.6138 6.72384 17.6138C2.20321 16.3746 2.46965 11.7126 2.51849 9.27398C2.56733 6.83538 3.03363 4.8361 4.41024 3.49158C6.88371 1.27259 11.9772 1.60217 11.9772 1.60217C16.2802 1.61973 18.3407 2.90272 18.8203 3.33335C20.4055 4.67792 21.2138 7.89434 20.6232 12.6091ZM14.4506 9.05872C14.4683 9.43657 13.8955 9.46298 13.8778 9.08503C13.8289 8.11836 13.3715 7.64826 12.4301 7.59553C12.0482 7.57352 12.0837 7.00672 12.4611 7.02873C13.7002 7.09461 14.3885 7.79764 14.4506 9.05872ZM15.3521 9.55519C15.3964 7.69214 14.2197 6.23335 11.986 6.07082C11.6086 6.04445 11.6485 5.4776 12.0261 5.50396C14.6017 5.68856 15.9738 7.44175 15.9249 9.56839C15.9205 9.94625 15.3432 9.92873 15.3521 9.55519ZM17.4392 10.144C17.4436 10.5219 16.8663 10.5263 16.8663 10.1484C16.8397 6.56733 14.4285 4.61639 11.502 4.59442C11.1245 4.59002 11.1245 4.02762 11.502 4.02762C14.7748 4.04958 17.4081 6.28608 17.4392 10.144ZM16.9374 14.4545V14.4633C16.4578 15.2982 15.5608 16.221 14.6371 15.9265L14.6282 15.9133C13.6912 15.6541 11.4843 14.5293 10.0899 13.4307C9.37048 12.8683 8.71322 12.2048 8.20698 11.5677C7.74963 11.0008 7.28782 10.3285 6.83932 9.52007C5.89347 7.82836 5.68477 7.0726 5.68477 7.0726C5.38723 6.15866 6.31533 5.27104 7.16345 4.79653H7.1724C7.58091 4.58557 7.97168 4.65591 8.23367 4.96783C8.23367 4.96783 8.78435 5.61808 9.01966 5.93895C9.24171 6.23771 9.53924 6.71661 9.69466 6.98466C9.96555 7.46357 9.79674 7.95133 9.53035 8.15339L8.99746 8.57526C8.72662 8.79053 8.76211 9.19039 8.76211 9.19039C8.76211 9.19039 9.55254 12.1476 12.5056 12.8946C12.5056 12.8946 12.9098 12.9297 13.1273 12.6617L13.5536 12.1344C13.7578 11.8708 14.2508 11.7038 14.7348 11.9719C15.3876 12.3365 16.218 12.9034 16.7687 13.4175C17.0795 13.6679 17.1505 14.0503 16.9374 14.4545Z" fill="white"/>
</svg>
